<?xml version="1.0" standalone="no"?>
<!DOCTYPE svg PUBLIC "-//W3C//DTD SVG 20010904//EN"
 "http://www.w3.org/TR/2001/REC-SVG-20010904/DTD/svg10.dtd">
<svg version="1.0" xmlns="http://www.w3.org/2000/svg"
 width="942.000000pt" height="942.000000pt" viewBox="0 0 942.000000 942.000000"
 preserveAspectRatio="xMidYMid meet">
<metadata>
Created by potrace 1.11, written by Peter Selinger 2001-2013
</metadata>
<g transform="translate(0.000000,942.000000) scale(0.100000,-0.100000)"
fill="#000000" stroke="none">
<path d="M4450 7560 c-25 -4 -70 -10 -100 -14 -30 -3 -68 -8 -85 -11 -137 -23
-136 -23 -228 -46 -45 -11 -91 -22 -101 -24 -102 -23 -335 -114 -496 -194
-291 -144 -518 -309 -755 -546 -267 -267 -482 -587 -615 -915 -12 -30 -28 -68
-35 -85 -26 -62 -97 -295 -109 -355 -2 -14 -9 -46 -15 -72 -16 -68 -39 -221
-48 -313 -10 -104 -10 -459 0 -555 16 -153 70 -437 94 -500 3 -8 7 -20 9 -27
4 -20 25 -87 34 -108 4 -11 18 -49 30 -85 12 -36 26 -69 31 -75 5 -5 9 -15 9
-23 0 -42 218 -442 293 -537 4 -5 31 -41 59 -80 107 -145 304 -355 441 -469
247 -206 526 -371 817 -484 99 -38 288 -99 334 -108 32 -6 56 -11 111 -24 52
-12 60 -14 140 -25 28 -3 57 -8 65 -10 102 -26 664 -26 760 0 8 2 37 7 64 10
27 3 51 7 55 9 3 2 28 7 55 10 27 4 53 9 56 11 4 2 21 7 39 10 221 39 605 196
846 347 96 60 227 150 251 173 6 5 29 24 50 40 86 67 280 254 369 355 254 291
473 693 580 1065 26 90 64 248 70 295 2 14 8 54 14 90 27 169 36 530 18 700
-60 572 -274 1088 -636 1535 -70 87 -275 294 -361 366 -36 30 -67 56 -70 59
-36 36 -252 182 -378 254 -175 100 -471 222 -652 267 -108 28 -244 56 -300 64
-44 6 -110 15 -145 21 -59 9 -513 12 -565 4z"/>
</g>
</svg>
