<svg width="1660" height="1660" viewBox="0 0 1660 1660" fill="none" xmlns="http://www.w3.org/2000/svg">
<circle cx="830" cy="830" r="830" fill="white"/>
<path d="M1047 1245.3C1053.98 1244.95 1058.75 1243.46 1061.32 1240.82C1063.89 1238.01 1065.27 1234.24 1065.46 1229.49C1065.82 1224.57 1066.01 1219.04 1066.01 1212.89V1099.04C1066.01 1095.53 1066.1 1092.19 1066.28 1089.03C1066.47 1085.69 1066.65 1082.7 1066.83 1080.07C1063.53 1080.24 1060.22 1080.42 1056.92 1080.6C1053.61 1080.77 1050.31 1080.95 1047 1081.12V1069.53L1112.01 1069.26C1128.54 1069.26 1143.69 1071.11 1157.46 1074.8C1171.23 1078.49 1183.08 1084.2 1192.99 1091.93C1203.09 1099.48 1210.81 1109.14 1216.13 1120.92C1221.64 1132.51 1224.39 1146.22 1224.39 1162.03C1224.39 1174.15 1222.19 1185.75 1217.78 1196.81C1213.38 1207.88 1206.77 1217.72 1197.95 1226.33C1189.14 1234.76 1178.12 1241.53 1164.9 1246.62C1151.86 1251.54 1136.71 1254 1119.45 1254H1047V1245.3ZM1089.97 1222.9C1089.97 1227.65 1089.88 1231.69 1089.7 1235.03C1089.7 1238.36 1089.51 1241.17 1089.15 1243.46C1094.1 1243.63 1098.6 1243.81 1102.64 1243.99C1106.87 1243.99 1110.36 1243.99 1113.11 1243.99C1116.05 1243.99 1117.88 1243.99 1118.62 1243.99C1130.56 1243.99 1141.3 1241.88 1150.85 1237.66C1160.58 1233.44 1168.84 1227.65 1175.64 1220.27C1182.62 1212.71 1187.94 1203.93 1191.62 1193.91C1195.47 1183.72 1197.4 1172.74 1197.4 1160.97C1197.4 1144.28 1194.19 1129.88 1187.76 1117.75C1181.52 1105.46 1171.87 1095.97 1158.84 1089.29C1145.8 1082.44 1129.18 1079.01 1108.98 1079.01C1102.18 1079.01 1097.41 1080.33 1094.65 1082.97C1092.08 1085.6 1090.61 1089.29 1090.25 1094.04C1090.06 1098.78 1089.97 1104.31 1089.97 1110.64V1222.9Z" fill="black"/>
<path d="M1249.56 1254V1245.3C1256.54 1245.13 1261.31 1243.63 1263.88 1240.82C1266.45 1237.84 1267.83 1233.88 1268.01 1228.96C1268.38 1223.87 1268.56 1218.07 1268.56 1211.57V1100.89C1268.56 1096.14 1268.66 1092.1 1268.84 1088.76C1269.02 1085.25 1269.21 1082.35 1269.39 1080.07C1266.09 1080.24 1262.78 1080.42 1259.47 1080.6C1256.17 1080.77 1252.86 1080.95 1249.56 1081.12V1069.53C1259.66 1069.35 1269.76 1069.26 1279.86 1069.26C1290.14 1069.09 1300.79 1069 1311.81 1069C1333.11 1069 1349.73 1072.6 1361.67 1079.8C1373.79 1087.01 1379.67 1098.43 1379.3 1114.06C1379.3 1119.69 1377.55 1125.31 1374.07 1130.93C1370.76 1136.55 1365.71 1141.56 1358.92 1145.95C1352.3 1150.17 1343.95 1153.15 1333.85 1154.91V1155.44C1354.05 1155.44 1369.29 1159.92 1379.57 1168.88C1389.86 1177.66 1395 1188.82 1395 1202.35C1395 1213.06 1392.15 1222.29 1386.46 1230.02C1380.77 1237.75 1373.06 1243.72 1363.32 1247.94C1353.59 1251.98 1342.48 1254 1329.99 1254H1249.56ZM1291.7 1243.46C1294.64 1243.63 1298.13 1243.81 1302.17 1243.99C1306.39 1243.99 1310.25 1243.99 1313.74 1243.99C1317.41 1243.99 1319.8 1243.99 1320.9 1243.99C1335.04 1243.99 1346.43 1240.65 1355.06 1233.97C1363.87 1227.12 1368.28 1217.11 1368.28 1203.93C1368.28 1193.21 1366.08 1184.87 1361.67 1178.89C1357.26 1172.92 1351.48 1168.7 1344.32 1166.24C1337.15 1163.78 1329.35 1162.55 1320.9 1162.55C1315.39 1162.55 1310.34 1162.64 1305.75 1162.82C1301.34 1162.82 1296.94 1162.99 1292.53 1163.34V1222.9C1292.53 1227.65 1292.44 1231.69 1292.25 1235.03C1292.25 1238.36 1292.07 1241.17 1291.7 1243.46ZM1292.53 1153.07L1312.64 1152.54C1323.11 1152.36 1331.37 1150.34 1337.43 1146.48C1343.49 1142.44 1347.8 1137.43 1350.38 1131.46C1353.13 1125.48 1354.42 1119.25 1354.23 1112.75C1354.05 1103.26 1351.75 1096.06 1347.35 1091.14C1343.12 1086.22 1337.89 1082.88 1331.64 1081.12C1325.4 1079.37 1319.25 1078.49 1313.19 1078.49C1307.13 1078.49 1302.63 1079.28 1299.69 1080.86C1296.75 1082.44 1294.83 1085.08 1293.91 1088.76C1292.99 1092.45 1292.53 1097.55 1292.53 1104.05V1153.07Z" fill="black"/>
<path d="M215.052 1260.53V1252.95C220.354 1252.95 224.031 1251.69 226.084 1249.16C228.136 1246.47 229.333 1242.84 229.675 1238.3C230.017 1233.58 230.188 1228.19 230.188 1222.13V1164.52C230.188 1161.83 230.188 1159.13 230.188 1156.44C230.359 1153.74 230.701 1150.96 231.214 1148.1C228.136 1148.27 225.057 1148.43 221.979 1148.6C219.071 1148.77 216.079 1148.94 213 1149.11V1138.5C220.525 1138.5 226.169 1138.16 229.932 1137.49C233.865 1136.81 236.773 1135.97 238.654 1134.96C240.535 1133.95 242.075 1132.85 243.272 1131.68H250.712C251.054 1133.36 251.225 1135.3 251.225 1137.49C251.396 1139.68 251.567 1142.2 251.738 1145.07C256.869 1140.69 262.769 1137.15 269.439 1134.45C276.109 1131.59 282.779 1130.16 289.449 1130.16C298.001 1130.16 305.184 1131.68 310.999 1134.71C316.814 1137.74 321.346 1141.87 324.596 1147.09C330.411 1142.37 337.081 1138.41 344.606 1135.21C352.302 1131.84 359.827 1130.16 367.182 1130.16C382.061 1130.16 393.007 1134.62 400.019 1143.55C407.031 1152.31 410.366 1166.71 410.024 1186.75L409.768 1233.75C409.768 1237.12 409.682 1240.15 409.511 1242.84C409.511 1245.37 409.254 1248.07 408.741 1250.93C411.478 1250.76 414.129 1250.68 416.694 1250.68C419.431 1250.51 422.167 1250.34 424.903 1250.17V1260.53H372.569V1252.95C377.871 1252.95 381.548 1251.69 383.6 1249.16C385.653 1246.47 386.85 1242.84 387.192 1238.3C387.534 1233.58 387.705 1228.19 387.705 1222.13V1186.75C387.705 1172.27 385.311 1161.4 380.522 1154.16C375.904 1146.92 368.55 1143.38 358.459 1143.55C353.157 1143.55 347.855 1144.73 342.554 1147.09C337.252 1149.45 332.634 1152.39 328.7 1155.93C329.555 1158.63 330.154 1161.57 330.496 1164.77C331.009 1167.81 331.266 1171.01 331.266 1174.37C331.095 1184.14 331.009 1194 331.009 1203.94C331.009 1213.87 330.924 1223.81 330.753 1233.75C330.753 1237.12 330.667 1240.15 330.496 1242.84C330.496 1245.37 330.24 1248.07 329.726 1250.93C332.463 1250.76 335.114 1250.68 337.679 1250.68C340.416 1250.51 343.152 1250.34 345.889 1250.17V1260.53H293.554V1252.95C298.856 1252.95 302.448 1251.69 304.329 1249.16C306.381 1246.47 307.578 1242.84 307.92 1238.3C308.434 1233.58 308.69 1228.19 308.69 1222.13L308.947 1186.75C309.118 1172.27 306.98 1161.32 302.533 1153.91C298.086 1146.5 290.818 1142.88 280.727 1143.04C275.425 1143.04 270.209 1144.22 265.078 1146.58C259.947 1148.77 255.586 1151.64 251.994 1155.17C251.994 1157.19 251.994 1159.38 251.994 1161.74C252.165 1163.93 252.251 1166.29 252.251 1168.82V1233.75C252.251 1237.12 252.165 1240.15 251.994 1242.84C251.994 1245.37 251.738 1248.07 251.225 1250.93C253.961 1250.76 256.612 1250.68 259.178 1250.68C261.914 1250.51 264.65 1250.34 267.387 1250.17V1260.53H215.052Z" fill="black"/>
<path d="M507.909 1264.57C495.937 1264.57 485.077 1261.88 475.328 1256.49C465.579 1250.93 457.798 1243.35 451.983 1233.75C446.339 1223.98 443.517 1212.86 443.517 1200.4C443.517 1187.09 446.339 1175.13 451.983 1164.52C457.627 1153.91 465.323 1145.57 475.071 1139.51C484.82 1133.28 495.766 1130.16 507.909 1130.16C519.881 1130.16 530.741 1133.02 540.49 1138.75C550.238 1144.31 558.02 1151.89 563.835 1161.49C569.65 1171.09 572.557 1182.04 572.557 1194.33C572.557 1207.3 569.65 1219.18 563.835 1229.96C558.191 1240.57 550.495 1248.99 540.746 1255.22C530.998 1261.46 520.052 1264.57 507.909 1264.57ZM509.961 1254.47C519.026 1254.47 526.209 1251.94 531.511 1246.89C536.812 1241.83 540.575 1235.26 542.798 1227.18C545.193 1219.09 546.39 1210.59 546.39 1201.66C546.39 1194.08 545.62 1186.67 544.081 1179.43C542.713 1172.02 540.49 1165.36 537.411 1159.47C534.333 1153.4 530.313 1148.6 525.354 1145.07C520.565 1141.53 514.75 1139.76 507.909 1139.76C499.015 1139.76 491.747 1142.29 486.103 1147.34C480.459 1152.39 476.269 1158.96 473.532 1167.05C470.967 1175.13 469.684 1183.81 469.684 1193.07C469.684 1203.51 471.138 1213.45 474.045 1222.88C476.953 1232.15 481.399 1239.73 487.385 1245.62C493.371 1251.52 500.897 1254.47 509.961 1254.47Z" fill="black"/>
<path d="M594.353 1260.53V1252.95C599.655 1252.95 603.332 1251.69 605.385 1249.16C607.437 1246.47 608.634 1242.84 608.976 1238.3C609.318 1233.58 609.489 1228.19 609.489 1222.13L609.746 1164.52C609.746 1161.83 609.746 1159.13 609.746 1156.44C609.917 1153.74 610.259 1150.96 610.772 1148.1C607.693 1148.27 604.615 1148.43 601.536 1148.6C598.629 1148.77 595.636 1148.94 592.557 1149.11V1138.5C600.083 1138.5 605.727 1138.16 609.489 1137.49C613.423 1136.81 616.33 1135.97 618.212 1134.96C620.093 1133.95 621.632 1132.85 622.829 1131.68H630.269C630.44 1132.85 630.526 1134.2 630.526 1135.72C630.697 1137.23 630.868 1138.92 631.039 1140.77C631.21 1142.62 631.295 1144.73 631.295 1147.09C635.058 1143.89 639.163 1141.02 643.609 1138.5C648.227 1135.97 653.016 1133.95 657.976 1132.43C663.106 1130.92 668.152 1130.16 673.112 1130.16C687.991 1130.16 698.851 1134.79 705.692 1144.06C712.534 1153.15 715.954 1167.38 715.954 1186.75V1233.75C715.954 1237.12 715.869 1240.15 715.698 1242.84C715.698 1245.37 715.441 1248.07 714.928 1250.93C717.664 1250.76 720.315 1250.68 722.881 1250.68C725.617 1250.51 728.354 1250.34 731.09 1250.17V1260.53H678.756V1252.95C684.057 1252.95 687.734 1251.69 689.787 1249.16C691.839 1246.47 693.036 1242.84 693.378 1238.3C693.72 1233.58 693.891 1228.19 693.891 1222.13V1186.75C693.72 1172.27 691.241 1161.32 686.452 1153.91C681.834 1146.5 674.48 1142.88 664.389 1143.04C658.232 1143.21 652.161 1144.81 646.175 1147.85C640.36 1150.88 635.485 1154.75 631.552 1159.47C631.723 1160.82 631.808 1162.33 631.808 1164.02C631.808 1165.7 631.808 1167.47 631.808 1169.32L631.552 1233.75C631.552 1237.12 631.466 1240.15 631.295 1242.84C631.295 1245.37 631.039 1248.07 630.526 1250.93C633.262 1250.76 635.913 1250.68 638.478 1250.68C641.215 1250.51 643.951 1250.34 646.688 1250.17V1260.53H594.353Z" fill="black"/>
<path d="M812.009 1329C796.616 1329 784.217 1327.32 774.81 1323.95C765.404 1320.58 758.563 1316.28 754.287 1311.06C750.011 1305.84 747.873 1300.45 747.873 1294.89C747.873 1289.67 749.071 1285.04 751.465 1281C754.03 1277.12 757.109 1273.75 760.701 1270.89C764.463 1268.03 768.055 1265.92 771.475 1264.57C766.002 1262.72 761.641 1260.28 758.392 1257.25C755.313 1254.05 753.774 1249.83 753.774 1244.61C753.774 1238.72 756.168 1233.24 760.957 1228.19C765.746 1222.97 771.903 1219.77 779.428 1218.59C771.561 1214.88 765.233 1209.75 760.444 1203.18C755.826 1196.61 753.517 1188.94 753.517 1180.19C753.517 1170.08 756.168 1161.32 761.47 1153.91C766.772 1146.33 773.528 1140.52 781.737 1136.48C790.117 1132.26 798.754 1130.16 807.648 1130.16C813.292 1130.16 818.936 1131 824.579 1132.69C830.223 1134.2 835.44 1136.48 840.229 1139.51C841.939 1134.79 844.333 1130.58 847.412 1126.87C850.661 1123.17 854.338 1120.31 858.443 1118.28C862.548 1116.09 866.823 1115 871.27 1115C875.717 1115 879.052 1116.18 881.275 1118.54C883.67 1120.73 884.867 1123.76 884.867 1127.63C884.867 1128.81 884.525 1130.24 883.841 1131.93C883.156 1133.61 881.959 1135.04 880.249 1136.22C878.71 1137.4 876.572 1137.99 873.835 1137.99C870.928 1137.99 868.534 1137.15 866.652 1135.47C864.771 1133.78 863.574 1131.68 863.061 1129.15C858.785 1129.82 855.45 1131.84 853.056 1135.21C850.661 1138.41 849.036 1141.95 848.181 1145.82C852.286 1149.53 855.535 1153.99 857.93 1159.21C860.495 1164.44 861.778 1169.99 861.778 1175.89C861.778 1185.32 859.213 1193.74 854.082 1201.16C849.122 1208.57 842.537 1214.38 834.328 1218.59C826.119 1222.63 817.225 1224.65 807.648 1224.65C804.398 1224.65 801.576 1224.48 799.182 1224.15C796.787 1223.64 793.88 1223.39 790.459 1223.39C784.131 1223.39 779.001 1224.91 775.067 1227.94C771.133 1230.97 769.765 1234.59 770.962 1238.8C772.33 1242.84 776.521 1245.45 783.533 1246.63C790.545 1247.64 799.951 1248.4 811.752 1248.91C824.922 1249.41 836.209 1250.93 845.616 1253.46C855.022 1255.98 862.206 1259.86 867.165 1265.08C872.296 1270.47 874.862 1277.71 874.862 1286.81C874.862 1293.54 872.98 1299.52 869.218 1304.74C865.626 1310.13 860.752 1314.6 854.595 1318.14C848.609 1321.67 841.853 1324.37 834.328 1326.22C826.974 1328.07 819.534 1329 812.009 1329ZM811.752 1319.15C826.461 1319.15 837.92 1316.45 846.129 1311.06C854.338 1305.67 858.443 1299.35 858.443 1292.11C858.443 1285.88 856.305 1281.08 852.029 1277.71C847.754 1274.51 841.939 1272.24 834.585 1270.89C827.23 1269.71 818.765 1269.04 809.187 1268.87C804.569 1268.7 800.037 1268.45 795.59 1268.11C791.144 1267.94 786.868 1267.52 782.763 1266.85C778.145 1269.88 774.554 1273.58 771.988 1277.96C769.423 1282.34 768.14 1286.97 768.14 1291.86C768.14 1300.11 772.074 1306.68 779.941 1311.57C787.979 1316.62 798.583 1319.15 811.752 1319.15ZM808.417 1215.56C814.745 1215.56 819.962 1214.04 824.066 1211.01C828.342 1207.98 831.506 1203.85 833.558 1198.63C835.782 1193.41 836.893 1187.51 836.893 1180.94C836.893 1173.53 835.782 1166.63 833.558 1160.23C831.335 1153.82 828 1148.69 823.553 1144.81C819.278 1140.94 813.805 1139 807.135 1139C797.899 1139 790.716 1142.46 785.585 1149.36C780.625 1156.1 778.145 1164.52 778.145 1174.63C778.145 1182.71 779.343 1189.87 781.737 1196.1C784.131 1202.17 787.552 1206.97 791.999 1210.5C796.616 1213.87 802.089 1215.56 808.417 1215.56Z" fill="black"/>
<path d="M954.352 1264.57C942.38 1264.57 931.519 1261.88 921.771 1256.49C912.022 1250.93 904.24 1243.35 898.425 1233.75C892.781 1223.98 889.96 1212.86 889.96 1200.4C889.96 1187.09 892.781 1175.13 898.425 1164.52C904.069 1153.91 911.766 1145.57 921.514 1139.51C931.263 1133.28 942.209 1130.16 954.352 1130.16C966.323 1130.16 977.184 1133.02 986.932 1138.75C996.681 1144.31 1004.46 1151.89 1010.28 1161.49C1016.09 1171.09 1019 1182.04 1019 1194.33C1019 1207.3 1016.09 1219.18 1010.28 1229.96C1004.63 1240.57 996.937 1248.99 987.189 1255.22C977.44 1261.46 966.494 1264.57 954.352 1264.57ZM956.404 1254.47C965.468 1254.47 972.651 1251.94 977.953 1246.89C983.255 1241.83 987.018 1235.26 989.241 1227.18C991.636 1219.09 992.833 1210.59 992.833 1201.66C992.833 1194.08 992.063 1186.67 990.524 1179.43C989.156 1172.02 986.932 1165.36 983.854 1159.47C980.775 1153.4 976.756 1148.6 971.796 1145.07C967.008 1141.53 961.193 1139.76 954.352 1139.76C945.458 1139.76 938.189 1142.29 932.545 1147.34C926.902 1152.39 922.711 1158.96 919.975 1167.05C917.409 1175.13 916.127 1183.81 916.127 1193.07C916.127 1203.51 917.58 1213.45 920.488 1222.88C923.395 1232.15 927.842 1239.73 933.828 1245.62C939.814 1251.52 947.339 1254.47 956.404 1254.47Z" fill="black"/>
<path d="M830.371 639.5C820.771 782.7 843.371 833.5 855.871 841C971.871 775.8 1004.54 607.5 1006.37 531.5C1003 461.5 991.001 369.5 912.001 260.5C846.557 170.204 831.204 169.167 830.371 152C834.371 254.833 839.971 496.3 830.371 639.5Z" fill="black"/>
<path d="M821.871 502V152C815.071 182 788.5 198 770.871 218C701.5 304 641.471 407.6 651.871 562C664.871 755 793.871 841 805.371 851C814.571 859 817.204 810.667 817.371 785.5L821.871 502Z" fill="black"/>
<path d="M830.371 826C828.995 867.6 815.13 876.333 808.37 875.5C816.87 884 830.371 1009 830.371 975.5C830.371 942 861.87 865.5 850.87 867C842.07 868.2 833.537 840.167 830.371 826Z" fill="black"/>
</svg>
